<?xml version="1.0" encoding="UTF-8" standalone="no"?>
<svg xmlns="http://www.w3.org/2000/svg" version="1.1" width="100" height="100">
	<path
		d="m 0,16.9 28.6,0 c 20.1,0 28.9,0 29.6,0.1 6.3,0.7 11,6 11,12.4 0,3.4 -1.4,6.6 -3.8,8.9 -2,1.9 -4.1,3 -7,3.4 -0.4,0.1 -6.8,0.1 -15.8,0.1 -9.6,0 -15.5,0 -16.3,0.1 C 19.5,42.5 13.4,45.5 8.7,50.1 4.8,54.2 2,59.3 0.8,65 0.3,67.8 0,68.4 0,84.8 l 0,15.2 16.9,0 0,-15.2 c 0,-15.2 0,-15.7 0.4,-17.2 1,-3.9 4.5,-7.5 8.4,-8.6 1.9,-0.5 1.9,-0.5 17.3,-0.5 8.6,0 14.9,0 15.5,0.1 4.6,0.5 8.1,2.7 9.9,6.6 0.3,0.4 0.5,1.4 0.6,2.1 0.3,1.1 0.4,1.6 0.4,4.1 0.1,1.5 0.1,2.9 0.1,3 0,0.1 0.1,0.5 0.1,0.7 0.6,5.1 2.9,10.5 6,14.5 5.2,6.5 13.5,10.4 22.5,10.4 l 1.9,0 0,-16.8 -1.3,0 c -3.8,0 -6.5,-0.9 -8.9,-2.7 C 88,79 86.5,76.4 86,73.8 c 0,-0.4 -0.1,-0.9 -0.1,-1 0,-0.1 0,-0.7 0,-1.2 0,-1.7 -0.3,-4.5 -0.5,-6 -0.9,-5.9 -3.4,-11 -7.3,-15 -0.3,-0.4 -0.7,-0.9 -0.7,-0.9 0,0 0.4,-0.4 0.8,-0.9 3.1,-3.2 5.6,-7.9 6.8,-12.5 2,-7.9 0.6,-16.2 -3.8,-23 C 80,11.5 79,10.4 77.4,8.7 72.9,4.1 67.6,1.4 60.9,0.2 59.9,0.1 57.5,0 29.9,0 L 0,0 z"
		style="fill: #00838F;"
	/>
</svg>
